PathFileType	4	(X/Y/Z)	Walk3.trc
DataRate	CameraRate	NumFrames	NumMarkers	Units	OrigDataRate	OrigDataStartFrame	OrigNumFrames
200.000000	200.000000	4	60	mm	200.000000	697	799
Frame#	Times		LToe		RCAR		RWRU		LLFC		RWRR		LFA1		RACR1		LUA1		STRN		LACR1		LElbow		RTH3		RLFC		LCAR		RFA1		RTB2		RToe		RFHD		RMT1		RMFC		LWRU		RTH2		RTB3		RMT5		LPSI		C7		LWRR		RPSI		RTB1		LTB1		RCAL		LTH3		LFHD		RTB4		LTB4		RASI		LTH4		RMMAL		LMT1		RLMAL		CLAV		LMFC		LTH2		LBHD		RBHD		RElbow		LTB2		LTB3		RUA1		RBack		LMMAL		RTH4		T10		LTH1		LCAL		RTH1		LMT5		LElbowM		RElbowM		LLMAL
			X1	Y1	Z1	X2	Y2	Z2	X3	Y3	Z3	X4	Y4	Z4	X5	Y5	Z5	X6	Y6	Z6	X7	Y7	Z7	X8	Y8	Z8	X9	Y9	Z9	X10	Y10	Z10	X11	Y11	Z11	X12	Y12	Z12	X13	Y13	Z13	X14	Y14	Z14	X15	Y15	Z15	X16	Y16	Z16	X17	Y17	Z17	X18	Y18	Z18	X19	Y19	Z19	X20	Y20	Z20	X21	Y21	Z21	X22	Y22	Z22	X23	Y23	Z23	X24	Y24	Z24	X25	Y25	Z25	X26	Y26	Z26	X27	Y27	Z27	X28	Y28	Z28	X29	Y29	Z29	X30	Y30	Z30	X31	Y31	Z31	X32	Y32	Z32	X33	Y33	Z33	X34	Y34	Z34	X35	Y35	Z35	X36	Y36	Z36	X37	Y37	Z37	X38	Y38	Z38	X39	Y39	Z39	X40	Y40	Z40	X41	Y41	Z41	X42	Y42	Z42	X43	Y43	Z43	X44	Y44	Z44	X45	Y45	Z45	X46	Y46	Z46	X47	Y47	Z47	X48	Y48	Z48	X49	Y49	Z49	X50	Y50	Z50	X51	Y51	Z51	X52	Y52	Z52	X53	Y53	Z53	X54	Y54	Z54	X55	Y55	Z55	X56	Y56	Z56	X57	Y57	Z57	X58	Y58	Z58	X59	Y59	Z59	X60	Y60	Z60

697	3.485	1128.2	35.329	-34.502	995.3	873.31	342.59	934.34	910.9	349.64	895.96	508.43	-151.91	992.94	919.02	282.38	919.7	1057.5	-314.84	863.55	1516.8	179.76	858.82	1353.2	-269.48	991.92	1311.8	-0.14945	863.34	1537.8	-190.05	829.26	1183.7	-317.45	856.84	644.8	216.48	878.57	529	227	975.11	897.88	-320.78	936.53	1054.9	315.54	757.11	335.47	191.83	683.71	60.148	135.93	985.53	1728.8	67.263	660.94	102.98	115.35	901.64	506.37	80.982	899.07	925.61	-324.35	891.74	743.21	225.53	700	283.1	118.34	601.55	119.36	192.23	707.09	1083.7	-73.674	754.36	1568	-0.093268	971.81	938.22	-266.06	698.17	1072.2	34.137	816.6	369.38	153.94	941.9	370.2	-41.074	510.2	260.04	93.917	905.19	657.29	-178.62	992.86	1734.3	-38.28	775.91	333.93	131.31	940.14	285.43	-33.693	899.82	1047.4	162.27	895.11	741.55	-198.57	621.81	231.86	64.26	1071.7	47.709	-20.113	566.23	242.42	148.22	924.57	1483.6	-14.805	895.13	511.42	-7.9319	952.95	752.05	-188.12	830.15	1702.2	-69.868	816.78	1697.4	70.877	841.02	1177.4	308.98	964.11	280.34	-92.218	941.88	199.56	-27.096	865.65	1337.9	257.49	700.47	1445.9	121.37	929.01	98.738	15.871	834.6	725.8	215.22	715.71	1210.4	-17.579	884.66	826.92	-216.16	846.04	43.439	-42.402	812.98	811.37	213.34	1027.5	26.294	-112	788.8	1156.1	-236.11	805.66	1145.1	224.88	910.38	66.487	-82.491
698	3.49	1128.2	35.03	-34.543	997.53	873.44	342.86	936.56	911.04	349.71	897.14	508.49	-152.27	995.34	919.03	282.57	925.66	1058.4	-315.23	867.85	1517.1	179.57	864.02	1353.7	-269.7	996.23	1312	-0.26511	868.12	1538.3	-190.23	834.8	1184.3	-317.98	864.72	645.62	216.27	887.68	530.09	226.79	981.69	899.06	-321.31	939.16	1055.1	315.6	767.88	335.63	191.94	698.2	60.383	136.25	990.31	1729	67.047	674.61	102.84	115.72	910.58	507.61	80.89	905.52	926.43	-324.98	898.54	744.39	225.45	711.25	282.63	118.59	615.36	118.47	192.76	711.35	1084.2	-73.844	758.98	1568.5	-0.45515	978.04	939.21	-266.44	702.51	1072.7	34.029	827.45	370.81	153.76	942.75	370.16	-41.392	521.37	257.35	94.564	907.4	657.39	-178.94	997.76	1734.5	-38.532	786.51	334.06	131.46	940.89	285.45	-33.981	903.39	1047.7	161.5	897.88	741.72	-198.83	633.35	230.65	64.594	1071.8	47.667	-20.107	577.95	240.58	148.66	929.09	1483.9	-14.911	896.5	511.52	-8.2196	955.79	751.8	-188.46	834.95	1702.6	-70.151	821.52	1697.9	70.587	843.93	1177.7	308.77	964.57	280.25	-92.568	942.32	199.55	-27.261	869.17	1338.1	257.36	704.79	1446.4	120.86	929.11	98.765	15.845	841.63	726.4	214.95	720.04	1210.9	-17.92	887.99	827.19	-216.42	846.03	43.466	-42.392	819.16	811.73	212.98	1027.5	26.271	-112.04	794.25	1156.5	-236.72	808.85	1145.6	224.55	910.37	66.488	-82.489
699	3.495	1128.3	34.743	-34.578	999.76	873.59	343.16	938.75	911.17	349.79	898.32	508.54	-152.61	997.76	919.07	282.8	931.6	1059.2	-315.61	872.13	1517.3	179.4	869.2	1354.2	-269.91	1000.5	1312.2	-0.38619	872.86	1538.8	-190.39	840.31	1184.8	-318.44	872.55	646.46	216.09	896.73	531.15	226.54	988.22	900.23	-321.83	941.74	1055.2	315.68	778.72	335.67	192.03	712.94	60.469	136.55	995.07	1729.2	66.856	688.52	102.53	116.08	919.39	508.87	80.761	911.93	927.24	-325.58	905.3	745.57	225.36	722.6	282	118.82	629.41	117.34	193.26	715.61	1084.6	-74.004	763.57	1569	-0.80248	984.25	940.17	-266.83	706.85	1073.1	33.937	838.45	372.32	153.46	943.59	370.12	-41.701	532.7	254.33	95.224	909.61	657.47	-179.23	1002.6	1734.7	-38.761	796.98	334.13	131.55	941.66	285.47	-34.27	906.92	1048	160.67	900.63	741.86	-199.06	645.04	229.24	64.905	1071.9	47.626	-20.097	589.83	238.46	149.1	933.59	1484.2	-15.005	897.9	511.62	-8.5007	958.61	751.54	-188.78	839.73	1703	-70.407	826.24	1698.3	70.321	846.77	1178	308.57	965.04	280.16	-92.913	942.76	199.55	-27.428	872.63	1338.3	257.25	709.09	1447	120.38	929.21	98.792	15.817	848.61	727.01	214.72	724.37	1211.3	-18.244	891.29	827.44	-216.66	846.03	43.498	-42.387	825.32	812.09	212.66	1027.5	26.251	-112.06	799.72	1156.9	-237.26	811.99	1146	224.2	910.36	66.489	-82.483
700	3.5	1128.3	34.471	-34.607	1002	873.75	343.48	940.92	911.29	349.86	899.51	508.59	-152.95	1000.2	919.12	283.05	937.51	1060.1	-315.98	876.37	1517.6	179.25	874.35	1354.8	-270.09	1004.8	1312.4	-0.51404	877.57	1539.3	-190.55	845.8	1185.4	-318.85	880.33	647.31	215.94	905.71	532.18	226.26	994.71	901.38	-322.37	944.28	1055.3	315.79	789.62	335.61	192.09	727.92	60.417	136.85	999.82	1729.4	66.69	702.65	102.04	116.42	928.06	510.13	80.595	918.3	928.04	-326.16	912.03	746.75	225.26	734.06	281.23	119.03	643.68	116	193.75	719.87	1085	-74.155	768.13	1569.4	-1.1363	990.44	941.1	-267.21	711.19	1073.6	33.857	849.58	373.89	153.05	944.44	370.08	-42.001	544.2	251.01	95.886	911.82	657.54	-179.51	1007.5	1734.8	-38.966	807.33	334.15	131.58	942.45	285.49	-34.56	910.44	1048.3	159.8	903.37	741.99	-199.27	656.88	227.64	65.192	1071.9	47.587	-20.085	601.86	236.07	149.55	938.06	1484.4	-15.09	899.33	511.72	-8.7796	961.4	751.27	-189.09	844.5	1703.4	-70.639	830.94	1698.7	70.078	849.54	1178.3	308.37	965.51	280.06	-93.251	943.2	199.54	-27.598	876.04	1338.5	257.16	713.37	1447.4	119.91	929.31	98.821	15.788	855.54	727.64	214.52	728.7	1211.7	-18.551	894.57	827.66	-216.88	846.02	43.537	-42.39	831.46	812.46	212.36	1027.5	26.236	-112.09	805.2	1157.3	-237.72	815.09	1146.4	223.82	910.35	66.489	-82.474
